{
	"patcher" : 	{
		"fileversion" : 1,
		"appversion" : 		{
			"major" : 8,
			"minor" : 1,
			"revision" : 11,
			"architecture" : "x64",
			"modernui" : 1
		}
,
		"classnamespace" : "box",
		"rect" : [ 386.0, 164.0, 809.0, 662.0 ],
		"bglocked" : 0,
		"openinpresentation" : 1,
		"default_fontsize" : 12.0,
		"default_fontface" : 0,
		"default_fontname" : "Arial",
		"gridonopen" : 1,
		"gridsize" : [ 15.0, 15.0 ],
		"gridsnaponopen" : 1,
		"objectsnaponopen" : 1,
		"statusbarvisible" : 2,
		"toolbarvisible" : 1,
		"lefttoolbarpinned" : 0,
		"toptoolbarpinned" : 0,
		"righttoolbarpinned" : 0,
		"bottomtoolbarpinned" : 0,
		"toolbars_unpinned_last_save" : 0,
		"tallnewobj" : 0,
		"boxanimatetime" : 200,
		"enablehscroll" : 1,
		"enablevscroll" : 1,
		"devicewidth" : 0.0,
		"description" : "",
		"digest" : "",
		"tags" : "",
		"style" : "",
		"subpatcher_template" : "",
		"assistshowspatchername" : 0,
		"boxes" : [ 			{
				"box" : 				{
					"id" : "obj-7",
					"maxclass" : "newobj",
					"numinlets" : 1,
					"numoutlets" : 1,
					"outlettype" : [ "bang" ],
					"patching_rect" : [ 346.0, 441.0, 58.0, 22.0 ],
					"text" : "loadbang"
				}

			}
, 			{
				"box" : 				{
					"id" : "obj-5",
					"maxclass" : "message",
					"numinlets" : 2,
					"numoutlets" : 1,
					"outlettype" : [ "" ],
					"patching_rect" : [ 346.0, 480.0, 82.0, 22.0 ],
					"text" : "threadcount 4"
				}

			}
, 			{
				"box" : 				{
					"comment" : "",
					"id" : "obj-1",
					"index" : 0,
					"maxclass" : "outlet",
					"numinlets" : 1,
					"numoutlets" : 0,
					"patching_rect" : [ 437.0, 744.0, 30.0, 30.0 ]
				}

			}
, 			{
				"box" : 				{
					"fontname" : "Helvetica Neue Medium",
					"fontsize" : 12.0,
					"id" : "obj-63",
					"linecount" : 3,
					"maxclass" : "comment",
					"numinlets" : 1,
					"numoutlets" : 0,
					"patching_rect" : [ -74.0, 139.5, 103.0, 49.0 ],
					"presentation" : 1,
					"presentation_rect" : [ 22.5, 0.0, 163.0, 21.0 ],
					"text" : "In: Frequency/Velocity Pairs",
					"textcolor" : [ 0.823529411764706, 0.827450980392157, 0.827450980392157, 1.0 ]
				}

			}
, 			{
				"box" : 				{
					"fontname" : "Helvetica Neue Medium",
					"fontsize" : 12.0,
					"id" : "obj-60",
					"maxclass" : "comment",
					"numinlets" : 1,
					"numoutlets" : 0,
					"patching_rect" : [ -32.0, 147.5, 88.0, 21.0 ],
					"presentation" : 1,
					"presentation_rect" : [ 22.5, 343.0, 69.0, 21.0 ],
					"text" : "Out: Signal",
					"textcolor" : [ 0.823529411764706, 0.827450980392157, 0.827450980392157, 1.0 ]
				}

			}
, 			{
				"box" : 				{
					"fontface" : 3,
					"fontname" : "Helvetica Neue Medium",
					"fontsize" : 30.0,
					"id" : "obj-59",
					"linecount" : 2,
					"maxclass" : "comment",
					"numinlets" : 1,
					"numoutlets" : 0,
					"patching_rect" : [ 17.0, 123.0, 386.0, 78.0 ],
					"presentation" : 1,
					"presentation_rect" : [ 35.0, 25.5, 437.0, 42.0 ],
					"text" : "Additive Frequency Generator"
				}

			}
, 			{
				"box" : 				{
					"fontface" : 2,
					"fontname" : "Helvetica Neue Medium",
					"fontsize" : 14.0,
					"id" : "obj-56",
					"linecount" : 2,
					"maxclass" : "comment",
					"numinlets" : 1,
					"numoutlets" : 0,
					"patching_rect" : [ -71.0, 45.0, 181.0, 40.0 ],
					"presentation" : 1,
					"presentation_rect" : [ 31.0, 273.0, 202.0, 23.0 ],
					"text" : "Attack Decay Sustain Release",
					"textjustification" : 1
				}

			}
, 			{
				"box" : 				{
					"fontname" : "Helvetica Neue Medium",
					"fontsize" : 14.0,
					"id" : "obj-53",
					"linecount" : 3,
					"maxclass" : "comment",
					"numinlets" : 1,
					"numoutlets" : 0,
					"patching_rect" : [ 573.5625, 34.5, 102.0, 57.0 ],
					"presentation" : 1,
					"presentation_rect" : [ 61.0, 72.5, 199.0, 23.0 ],
					"text" : "reinitialize with current values"
				}

			}
, 			{
				"box" : 				{
					"comment" : "",
					"id" : "obj-50",
					"index" : 0,
					"maxclass" : "inlet",
					"numinlets" : 0,
					"numoutlets" : 1,
					"outlettype" : [ "" ],
					"patching_rect" : [ 437.0, 437.0, 30.0, 30.0 ]
				}

			}
, 			{
				"box" : 				{
					"id" : "obj-49",
					"maxclass" : "newobj",
					"numinlets" : 1,
					"numoutlets" : 1,
					"outlettype" : [ "bang" ],
					"patching_rect" : [ 676.9375, 383.0, 58.0, 22.0 ],
					"text" : "loadbang"
				}

			}
, 			{
				"box" : 				{
					"id" : "obj-48",
					"maxclass" : "message",
					"numinlets" : 2,
					"numoutlets" : 1,
					"outlettype" : [ "" ],
					"patching_rect" : [ 762.0625, 428.0, 35.0, 22.0 ],
					"text" : "1000"
				}

			}
, 			{
				"box" : 				{
					"id" : "obj-47",
					"maxclass" : "message",
					"numinlets" : 2,
					"numoutlets" : 1,
					"outlettype" : [ "" ],
					"patching_rect" : [ 720.0, 428.0, 29.5, 22.0 ],
					"text" : "0.5"
				}

			}
, 			{
				"box" : 				{
					"id" : "obj-46",
					"maxclass" : "message",
					"numinlets" : 2,
					"numoutlets" : 1,
					"outlettype" : [ "" ],
					"patching_rect" : [ 676.9375, 428.0, 29.5, 22.0 ],
					"text" : "100"
				}

			}
, 			{
				"box" : 				{
					"id" : "obj-44",
					"maxclass" : "message",
					"numinlets" : 2,
					"numoutlets" : 1,
					"outlettype" : [ "" ],
					"patching_rect" : [ 634.375, 428.0, 29.5, 22.0 ],
					"text" : "5"
				}

			}
, 			{
				"box" : 				{
					"id" : "obj-42",
					"maxclass" : "newobj",
					"numinlets" : 1,
					"numoutlets" : 0,
					"patching_rect" : [ 634.375, 559.0, 56.0, 22.0 ],
					"text" : "s adsrlist"
				}

			}
, 			{
				"box" : 				{
					"id" : "obj-41",
					"maxclass" : "newobj",
					"numinlets" : 4,
					"numoutlets" : 1,
					"outlettype" : [ "" ],
					"patching_rect" : [ 634.375, 526.0, 146.6875, 22.0 ],
					"text" : "pak f f f f"
				}

			}
, 			{
				"box" : 				{
					"id" : "obj-40",
					"maxclass" : "newobj",
					"numinlets" : 1,
					"numoutlets" : 0,
					"patching_rect" : [ 590.0, 367.0, 51.0, 22.0 ],
					"text" : "s harms"
				}

			}
, 			{
				"box" : 				{
					"id" : "obj-35",
					"maxclass" : "newobj",
					"numinlets" : 1,
					"numoutlets" : 1,
					"outlettype" : [ "" ],
					"patching_rect" : [ 437.0, 480.0, 101.0, 22.0 ],
					"text" : "prepend midinote"
				}

			}
, 			{
				"box" : 				{
					"id" : "obj-33",
					"maxclass" : "button",
					"numinlets" : 1,
					"numoutlets" : 1,
					"outlettype" : [ "bang" ],
					"parameter_enable" : 0,
					"patching_rect" : [ 548.0, 46.0, 24.0, 24.0 ],
					"presentation" : 1,
					"presentation_rect" : [ 35.0, 72.5, 24.0, 24.0 ]
				}

			}
, 			{
				"box" : 				{
					"id" : "obj-4",
					"maxclass" : "newobj",
					"numinlets" : 1,
					"numoutlets" : 1,
					"outlettype" : [ "bang" ],
					"patching_rect" : [ 668.0, 11.0, 58.0, 22.0 ],
					"text" : "loadbang"
				}

			}
, 			{
				"box" : 				{
					"id" : "obj-12",
					"maxclass" : "live.dial",
					"numinlets" : 1,
					"numoutlets" : 2,
					"outlettype" : [ "", "float" ],
					"parameter_enable" : 1,
					"patching_rect" : [ 762.0625, 460.0, 27.0, 37.0 ],
					"presentation" : 1,
					"presentation_rect" : [ 183.0625, 298.0, 38.9375, 37.0 ],
					"saved_attribute_attributes" : 					{
						"valueof" : 						{
							"parameter_longname" : "live.dial[33]",
							"parameter_mmax" : 10000.0,
							"parameter_shortname" : "live.dial",
							"parameter_steps" : 10000,
							"parameter_type" : 0,
							"parameter_unitstyle" : 2
						}

					}
,
					"showname" : 0,
					"varname" : "live.dial[3]"
				}

			}
, 			{
				"box" : 				{
					"id" : "obj-11",
					"maxclass" : "live.dial",
					"numinlets" : 1,
					"numoutlets" : 2,
					"outlettype" : [ "", "float" ],
					"parameter_enable" : 1,
					"patching_rect" : [ 720.0, 460.0, 27.0, 37.0 ],
					"presentation" : 1,
					"presentation_rect" : [ 137.625, 298.0, 39.0, 37.0 ],
					"saved_attribute_attributes" : 					{
						"valueof" : 						{
							"parameter_longname" : "live.dial[32]",
							"parameter_mmax" : 1.0,
							"parameter_shortname" : "live.dial",
							"parameter_steps" : 1000,
							"parameter_type" : 0,
							"parameter_unitstyle" : 1
						}

					}
,
					"showname" : 0,
					"varname" : "live.dial[2]"
				}

			}
, 			{
				"box" : 				{
					"id" : "obj-10",
					"maxclass" : "live.dial",
					"numinlets" : 1,
					"numoutlets" : 2,
					"outlettype" : [ "", "float" ],
					"parameter_enable" : 1,
					"patching_rect" : [ 676.9375, 460.0, 27.0, 37.0 ],
					"presentation" : 1,
					"presentation_rect" : [ 87.0, 298.0, 43.625, 37.0 ],
					"saved_attribute_attributes" : 					{
						"valueof" : 						{
							"parameter_longname" : "live.dial[35]",
							"parameter_mmax" : 10000.0,
							"parameter_shortname" : "live.dial",
							"parameter_steps" : 10000,
							"parameter_type" : 0,
							"parameter_unitstyle" : 2
						}

					}
,
					"showname" : 0,
					"varname" : "live.dial[1]"
				}

			}
, 			{
				"box" : 				{
					"id" : "obj-6",
					"maxclass" : "live.dial",
					"numinlets" : 1,
					"numoutlets" : 2,
					"outlettype" : [ "", "float" ],
					"parameter_enable" : 1,
					"patching_rect" : [ 634.375, 460.0, 27.0, 37.0 ],
					"presentation" : 1,
					"presentation_rect" : [ 35.0, 298.0, 44.0, 37.0 ],
					"saved_attribute_attributes" : 					{
						"valueof" : 						{
							"parameter_longname" : "live.dial[34]",
							"parameter_mmax" : 10000.0,
							"parameter_shortname" : "live.dial",
							"parameter_steps" : 10000,
							"parameter_type" : 0,
							"parameter_unitstyle" : 2
						}

					}
,
					"showname" : 0,
					"varname" : "live.dial"
				}

			}
, 			{
				"box" : 				{
					"id" : "obj-25",
					"maxclass" : "newobj",
					"numinlets" : 1,
					"numoutlets" : 1,
					"outlettype" : [ "signal" ],
					"patching_rect" : [ 437.0, 526.0, 181.0, 22.0 ],
					"text" : "poly~ AdditiveEngine 8 @steal 1"
				}

			}
, 			{
				"box" : 				{
					"id" : "obj-70",
					"lastchannelcount" : 1,
					"maxclass" : "mc.live.gain~",
					"numinlets" : 1,
					"numoutlets" : 4,
					"outlettype" : [ "multichannelsignal", "", "float", "list" ],
					"parameter_enable" : 1,
					"patching_rect" : [ 437.0, 581.0, 92.0, 136.0 ],
					"presentation" : 1,
					"presentation_rect" : [ 511.0, 100.0, 62.0, 163.0 ],
					"saved_attribute_attributes" : 					{
						"valueof" : 						{
							"parameter_initial" : [ -12 ],
							"parameter_initial_enable" : 1,
							"parameter_longname" : "mc.live.gain~[1]",
							"parameter_mmax" : 6.0,
							"parameter_mmin" : -70.0,
							"parameter_shortname" : "mc.live.gain~[1]",
							"parameter_type" : 0,
							"parameter_unitstyle" : 4
						}

					}
,
					"showname" : 0,
					"varname" : "mc.live.gain~[1]"
				}

			}
, 			{
				"box" : 				{
					"id" : "obj-61",
					"maxclass" : "newobj",
					"numinlets" : 1,
					"numoutlets" : 2,
					"outlettype" : [ "float", "float" ],
					"patching_rect" : [ 548.0, 329.0, 61.0, 22.0 ],
					"text" : "unpack f f"
				}

			}
, 			{
				"box" : 				{
					"id" : "obj-45",
					"maxclass" : "newobj",
					"numinlets" : 1,
					"numoutlets" : 1,
					"outlettype" : [ "list" ],
					"patching_rect" : [ 548.0, 299.0, 56.0, 22.0 ],
					"text" : "listfunnel"
				}

			}
, 			{
				"box" : 				{
					"id" : "obj-39",
					"linecount" : 3,
					"maxclass" : "message",
					"numinlets" : 2,
					"numoutlets" : 1,
					"outlettype" : [ "" ],
					"patching_rect" : [ 613.0, 306.0, 331.0, 49.0 ],
					"text" : "1. 0.5 0.333333 0.25 0.2 0.166667 0.142857 0.125 0.111111 0.1 0.090909 0.083333 0.076923 0.071429 0.066667 0.0625"
				}

			}
, 			{
				"box" : 				{
					"fontname" : "Helvetica Neue Medium",
					"fontsize" : 14.0,
					"id" : "obj-37",
					"linecount" : 6,
					"maxclass" : "comment",
					"numinlets" : 1,
					"numoutlets" : 0,
					"patching_rect" : [ 699.0, 48.0, 45.0, 107.0 ],
					"presentation" : 1,
					"presentation_rect" : [ 345.9375, 72.5, 164.0, 23.0 ],
					"text" : "reset to harmonic series"
				}

			}
, 			{
				"box" : 				{
					"id" : "obj-34",
					"maxclass" : "button",
					"numinlets" : 1,
					"numoutlets" : 1,
					"outlettype" : [ "bang" ],
					"parameter_enable" : 0,
					"patching_rect" : [ 668.0, 46.0, 24.0, 24.0 ],
					"presentation" : 1,
					"presentation_rect" : [ 319.9375, 72.5, 24.0, 24.0 ]
				}

			}
, 			{
				"box" : 				{
					"id" : "obj-27",
					"linecount" : 3,
					"maxclass" : "message",
					"numinlets" : 2,
					"numoutlets" : 1,
					"outlettype" : [ "" ],
					"patching_rect" : [ 667.0, 86.0, 275.0, 49.0 ],
					"text" : "1. 0.5 0.333333 0.25 0.2 0.166667 0.142857 0.125 0.111111 0.1 0.090909 0.083333 0.076923 0.071429 0.066667 0.0625"
				}

			}
, 			{
				"box" : 				{
					"candicane2" : [ 1.0, 0.713725490196078, 0.329411764705882, 1.0 ],
					"candicane3" : [ 0.843137254901961, 0.847058823529412, 0.27843137254902, 1.0 ],
					"candicane4" : [ 0.290196078431373, 0.847058823529412, 0.27843137254902, 1.0 ],
					"candicane5" : [ 0.27843137254902, 0.847058823529412, 0.776470588235294, 1.0 ],
					"candicane6" : [ 0.27843137254902, 0.427450980392157, 0.847058823529412, 1.0 ],
					"candicane7" : [ 0.431372549019608, 0.149019607843137, 0.882352941176471, 1.0 ],
					"candicane8" : [ 0.701960784313725, 0.031372549019608, 0.682352941176471, 1.0 ],
					"candycane" : 16,
					"id" : "obj-9",
					"maxclass" : "multislider",
					"numinlets" : 1,
					"numoutlets" : 2,
					"outlettype" : [ "", "" ],
					"parameter_enable" : 1,
					"patching_rect" : [ 548.0, 150.0, 394.0, 141.0 ],
					"presentation" : 1,
					"presentation_rect" : [ 35.0, 100.0, 474.0, 163.0 ],
					"saved_attribute_attributes" : 					{
						"valueof" : 						{
							"parameter_invisible" : 1,
							"parameter_longname" : "multislider",
							"parameter_shortname" : "multislider",
							"parameter_type" : 3
						}

					}
,
					"setminmax" : [ 0.0, 1.0 ],
					"setstyle" : 1,
					"size" : 16,
					"slidercolor" : [ 1.0, 0.329411764705882, 0.329411764705882, 1.0 ],
					"varname" : "multislider"
				}

			}
, 			{
				"box" : 				{
					"angle" : 270.0,
					"border" : 19,
					"bordercolor" : [ 0.223529411764706, 0.219607843137255, 0.219607843137255, 1.0 ],
					"grad1" : [ 0.509803921568627, 0.666666666666667, 0.866666666666667, 1.0 ],
					"grad2" : [ 0.572549019607843, 0.662745098039216, 0.796078431372549, 1.0 ],
					"id" : "obj-57",
					"maxclass" : "panel",
					"mode" : 1,
					"numinlets" : 1,
					"numoutlets" : 0,
					"patching_rect" : [ 111.0, 117.0, 128.0, 128.0 ],
					"presentation" : 1,
					"presentation_rect" : [ 0.0, 0.0, 592.0, 364.0 ],
					"proportion" : 0.5,
					"rounded" : 0
				}

			}
 ],
		"lines" : [ 			{
				"patchline" : 				{
					"destination" : [ "obj-41", 1 ],
					"source" : [ "obj-10", 0 ]
				}

			}
, 			{
				"patchline" : 				{
					"destination" : [ "obj-41", 2 ],
					"source" : [ "obj-11", 0 ]
				}

			}
, 			{
				"patchline" : 				{
					"destination" : [ "obj-41", 3 ],
					"source" : [ "obj-12", 0 ]
				}

			}
, 			{
				"patchline" : 				{
					"destination" : [ "obj-70", 0 ],
					"source" : [ "obj-25", 0 ]
				}

			}
, 			{
				"patchline" : 				{
					"destination" : [ "obj-9", 0 ],
					"source" : [ "obj-27", 0 ]
				}

			}
, 			{
				"patchline" : 				{
					"destination" : [ "obj-9", 0 ],
					"source" : [ "obj-33", 0 ]
				}

			}
, 			{
				"patchline" : 				{
					"destination" : [ "obj-27", 0 ],
					"source" : [ "obj-34", 0 ]
				}

			}
, 			{
				"patchline" : 				{
					"destination" : [ "obj-25", 0 ],
					"source" : [ "obj-35", 0 ]
				}

			}
, 			{
				"patchline" : 				{
					"destination" : [ "obj-34", 0 ],
					"source" : [ "obj-4", 0 ]
				}

			}
, 			{
				"patchline" : 				{
					"destination" : [ "obj-42", 0 ],
					"source" : [ "obj-41", 0 ]
				}

			}
, 			{
				"patchline" : 				{
					"destination" : [ "obj-6", 0 ],
					"source" : [ "obj-44", 0 ]
				}

			}
, 			{
				"patchline" : 				{
					"destination" : [ "obj-61", 0 ],
					"source" : [ "obj-45", 0 ]
				}

			}
, 			{
				"patchline" : 				{
					"destination" : [ "obj-10", 0 ],
					"source" : [ "obj-46", 0 ]
				}

			}
, 			{
				"patchline" : 				{
					"destination" : [ "obj-11", 0 ],
					"source" : [ "obj-47", 0 ]
				}

			}
, 			{
				"patchline" : 				{
					"destination" : [ "obj-12", 0 ],
					"source" : [ "obj-48", 0 ]
				}

			}
, 			{
				"patchline" : 				{
					"destination" : [ "obj-44", 0 ],
					"order" : 3,
					"source" : [ "obj-49", 0 ]
				}

			}
, 			{
				"patchline" : 				{
					"destination" : [ "obj-46", 0 ],
					"order" : 2,
					"source" : [ "obj-49", 0 ]
				}

			}
, 			{
				"patchline" : 				{
					"destination" : [ "obj-47", 0 ],
					"order" : 1,
					"source" : [ "obj-49", 0 ]
				}

			}
, 			{
				"patchline" : 				{
					"destination" : [ "obj-48", 0 ],
					"order" : 0,
					"source" : [ "obj-49", 0 ]
				}

			}
, 			{
				"patchline" : 				{
					"destination" : [ "obj-25", 0 ],
					"source" : [ "obj-5", 0 ]
				}

			}
, 			{
				"patchline" : 				{
					"destination" : [ "obj-35", 0 ],
					"source" : [ "obj-50", 0 ]
				}

			}
, 			{
				"patchline" : 				{
					"destination" : [ "obj-41", 0 ],
					"source" : [ "obj-6", 0 ]
				}

			}
, 			{
				"patchline" : 				{
					"destination" : [ "obj-40", 0 ],
					"source" : [ "obj-61", 1 ]
				}

			}
, 			{
				"patchline" : 				{
					"destination" : [ "obj-5", 0 ],
					"source" : [ "obj-7", 0 ]
				}

			}
, 			{
				"patchline" : 				{
					"destination" : [ "obj-1", 0 ],
					"source" : [ "obj-70", 0 ]
				}

			}
, 			{
				"patchline" : 				{
					"destination" : [ "obj-39", 1 ],
					"order" : 0,
					"source" : [ "obj-9", 0 ]
				}

			}
, 			{
				"patchline" : 				{
					"destination" : [ "obj-45", 0 ],
					"order" : 1,
					"source" : [ "obj-9", 0 ]
				}

			}
 ],
		"parameters" : 		{
			"obj-10" : [ "live.dial[35]", "live.dial", 0 ],
			"obj-11" : [ "live.dial[32]", "live.dial", 0 ],
			"obj-12" : [ "live.dial[33]", "live.dial", 0 ],
			"obj-6" : [ "live.dial[34]", "live.dial", 0 ],
			"obj-70" : [ "mc.live.gain~[1]", "mc.live.gain~[1]", 0 ],
			"obj-9" : [ "multislider", "multislider", 0 ],
			"parameterbanks" : 			{

			}
,
			"inherited_shortname" : 1
		}
,
		"dependency_cache" : [ 			{
				"name" : "AdditiveEngine.maxpat",
				"bootpath" : "~/Desktop/NH BPatchers/NH_AdditiveFrequencyGenerator_BPatcher/NH_AdditiveFrequencyGenerator/patchers",
				"patcherrelativepath" : ".",
				"type" : "JSON",
				"implicit" : 1
			}
 ],
		"autosave" : 0
	}

}
